<svg width="32" height="32" viewBox="0 0 32 32" fill="none" xmlns="http://www.w3.org/2000/svg">
  <path d="M16.227 23.73c1.104 0 2.034.926 1.625 1.952a5.27 5.27 0 0 1-5.924 3.217 5.27 5.27 0 0 1-.924-10.064c1.026-.41 1.953.52 1.953 1.625v1.27a2 2 0 0 0 2 2zm3.897-10.298c0-1.104.927-2.034 1.953-1.625a5.26 5.26 0 0 1 2.916 2.879 5.27 5.27 0 1 1-9.764 3.969c-.41-1.026.52-1.952 1.625-1.952h1.27a2 2 0 0 0 2-2zm-7.097 1.622c0 1.105-.913 2.027-1.973 1.717a7.028 7.028 0 1 1 8.717-8.717c.31 1.06-.613 1.973-1.717 1.973h-3.027a2 2 0 0 0-2 2z" fill="#000000"/>
</svg>
